REM DIRINDEX 1\2,1\3,1\4,1\5
REM DIRNAME folder01,folder02,folder03,folder04,folder05
TITLE ""
FILE "178.mp3" MP3
  TRACK 01 AUDIO
    TITLE "0:"
    INDEX 01 00:00:00
  TRACK 02 AUDIO
    TITLE "2:cjc046_5512"
    INDEX 01 00:00:13
  TRACK 03 AUDIO
    TITLE "0:"
    INDEX 01 00:01:44
  TRACK 04 AUDIO
    TITLE "3:cjc046_5513"
    INDEX 01 00:01:52
  TRACK 05 AUDIO
    TITLE "0:"
    INDEX 01 00:02:61
  TRACK 06 AUDIO
    TITLE "4:cjc046_5514"
    INDEX 01 00:02:71
  TRACK 07 AUDIO
    TITLE "0:"
    INDEX 01 00:04:23
  TRACK 08 AUDIO
    TITLE "2:cjc046_5515"
    INDEX 01 00:05:28
  TRACK 09 AUDIO
    TITLE "0:"
    INDEX 01 00:06:45
  TRACK 10 AUDIO
    TITLE "3:cjc046_5516"
    INDEX 01 00:06:65
  TRACK 11 AUDIO
    TITLE "0:"
    INDEX 01 00:07:74
  TRACK 12 AUDIO
    TITLE "4:cjc046_5517"
    INDEX 01 00:08:17
  TRACK 13 AUDIO
    TITLE "0:"
    INDEX 01 00:09:30
  TRACK 14 AUDIO
    TITLE "2:cjc046_5518"
    INDEX 01 00:10:43
  TRACK 15 AUDIO
    TITLE "0:"
    INDEX 01 00:11:50
  TRACK 16 AUDIO
    TITLE "3:cjc046_5519"
    INDEX 01 00:11:64
  TRACK 17 AUDIO
    TITLE "0:"
    INDEX 01 00:13:14
  TRACK 18 AUDIO
    TITLE "4:cjc046_5520"
    INDEX 01 00:13:33
  TRACK 19 AUDIO
    TITLE "0:"
    INDEX 01 00:14:39
  TRACK 20 AUDIO
    TITLE "2:cjc046_5521"
    INDEX 01 00:15:50
  TRACK 21 AUDIO
    TITLE "0:"
    INDEX 01 00:16:63
  TRACK 22 AUDIO
    TITLE "3:cjc046_5522"
    INDEX 01 00:17:02
  TRACK 23 AUDIO
    TITLE "0:"
    INDEX 01 00:17:69
  TRACK 24 AUDIO
    TITLE "4:cjc046_5523"
    INDEX 01 00:18:09
  TRACK 25 AUDIO
    TITLE "0:"
    INDEX 01 00:19:22
  TRACK 26 AUDIO
    TITLE "2:cjc046_5524"
    INDEX 01 00:20:28
  TRACK 27 AUDIO
    TITLE "0:"
    INDEX 01 00:21:31
  TRACK 28 AUDIO
    TITLE "3:cjc046_5525"
    INDEX 01 00:21:49
  TRACK 29 AUDIO
    TITLE "0:"
    INDEX 01 00:23:10
  TRACK 30 AUDIO
    TITLE "4:cjc046_5526"
    INDEX 01 00:23:24
  TRACK 31 AUDIO
    TITLE "0:"
    INDEX 01 00:24:29
  TRACK 32 AUDIO
    TITLE "2:cjc046_5527"
    INDEX 01 00:25:37
  TRACK 33 AUDIO
    TITLE "0:"
    INDEX 01 00:26:56
  TRACK 34 AUDIO
    TITLE "3:cjc046_5528"
    INDEX 01 00:26:73
  TRACK 35 AUDIO
    TITLE "0:"
    INDEX 01 00:28:17
  TRACK 36 AUDIO
    TITLE "4:cjc046_5529"
    INDEX 01 00:28:29
  TRACK 37 AUDIO
    TITLE "0:"
    INDEX 01 00:29:50
  TRACK 38 AUDIO
    TITLE "2:cjc046_5530"
    INDEX 01 00:30:57
  TRACK 39 AUDIO
    TITLE "0:"
    INDEX 01 00:31:59
  TRACK 40 AUDIO
    TITLE "3:cjc046_5531"
    INDEX 01 00:32:09
  TRACK 41 AUDIO
    TITLE "0:"
    INDEX 01 00:33:28
  TRACK 42 AUDIO
    TITLE "4:cjc046_5532"
    INDEX 01 00:33:44
  TRACK 43 AUDIO
    TITLE "0:"
    INDEX 01 00:34:45
  TRACK 44 AUDIO
    TITLE "2:cjc046_5533"
    INDEX 01 00:35:61
  TRACK 45 AUDIO
    TITLE "0:"
    INDEX 01 00:37:01
  TRACK 46 AUDIO
    TITLE "3:cjc046_5534"
    INDEX 01 00:37:22
  TRACK 47 AUDIO
    TITLE "0:"
    INDEX 01 00:38:39
  TRACK 48 AUDIO
    TITLE "4:cjc046_5535"
    INDEX 01 00:38:55
  TRACK 49 AUDIO
    TITLE "0:"
    INDEX 01 00:39:74
  TRACK 50 AUDIO
    TITLE "2:cjc046_5536"
    INDEX 01 00:41:08
  TRACK 51 AUDIO
    TITLE "0:"
    INDEX 01 00:42:25
  TRACK 52 AUDIO
    TITLE "3:cjc046_5537"
    INDEX 01 00:42:43
  TRACK 53 AUDIO
    TITLE "0:"
    INDEX 01 00:43:64
  TRACK 54 AUDIO
    TITLE "4:cjc046_5538"
    INDEX 01 00:44:09
  TRACK 55 AUDIO
    TITLE "0:"
    INDEX 01 00:45:24
  TRACK 56 AUDIO
    TITLE "2:cjc046_5539"
    INDEX 01 00:46:27
  TRACK 57 AUDIO
    TITLE "0:"
    INDEX 01 00:47:32
  TRACK 58 AUDIO
    TITLE "3:cjc046_5540"
    INDEX 01 00:47:52
  TRACK 59 AUDIO
    TITLE "0:"
    INDEX 01 00:48:69
  TRACK 60 AUDIO
    TITLE "4:cjc046_5541"
    INDEX 01 00:49:06
  TRACK 61 AUDIO
    TITLE "0:"
    INDEX 01 00:50:11
  TRACK 62 AUDIO
    TITLE "2:cjc046_5542"
    INDEX 01 00:51:20
  TRACK 63 AUDIO
    TITLE "0:"
    INDEX 01 00:52:49
  TRACK 64 AUDIO
    TITLE "3:cjc046_5543"
    INDEX 01 00:52:67
  TRACK 65 AUDIO
    TITLE "0:"
    INDEX 01 00:54:05
  TRACK 66 AUDIO
    TITLE "4:cjc046_5544"
    INDEX 01 00:54:25
  TRACK 67 AUDIO
    TITLE "0:"
    INDEX 01 00:55:53
  TRACK 68 AUDIO
    TITLE "2:cjc046_5545"
    INDEX 01 00:56:61
  TRACK 69 AUDIO
    TITLE "0:"
    INDEX 01 00:57:62
  TRACK 70 AUDIO
    TITLE "3:cjc046_5546"
    INDEX 01 00:58:07
  TRACK 71 AUDIO
    TITLE "0:"
    INDEX 01 00:58:60
  TRACK 72 AUDIO
    TITLE "4:cjc046_5547"
    INDEX 01 00:59:06
  TRACK 73 AUDIO
    TITLE "0:"
    INDEX 01 01:00:06
  TRACK 74 AUDIO
    TITLE "2:cjc046_5548"
    INDEX 01 01:01:11
  TRACK 75 AUDIO
    TITLE "0:"
    INDEX 01 01:02:30
  TRACK 76 AUDIO
    TITLE "3:cjc046_5549"
    INDEX 01 01:02:52
  TRACK 77 AUDIO
    TITLE "0:"
    INDEX 01 01:03:53
  TRACK 78 AUDIO
    TITLE "4:cjc046_5550"
    INDEX 01 01:03:73
  TRACK 79 AUDIO
    TITLE "0:"
    INDEX 01 01:05:15
  TRACK 80 AUDIO
    TITLE "2:cjc046_5551"
    INDEX 01 01:06:22
  TRACK 81 AUDIO
    TITLE "0:"
    INDEX 01 01:07:37
  TRACK 82 AUDIO
    TITLE "3:cjc046_5552"
    INDEX 01 01:07:55
  TRACK 83 AUDIO
    TITLE "0:"
    INDEX 01 01:09:57
  TRACK 84 AUDIO
    TITLE "4:cjc046_5553"
    INDEX 01 01:09:67
  TRACK 85 AUDIO
    TITLE "0:"
    INDEX 01 01:11:09
  TRACK 86 AUDIO
    TITLE "2:cjc046_5554"
    INDEX 01 01:12:15
  TRACK 87 AUDIO
    TITLE "0:"
    INDEX 01 01:13:28
  TRACK 88 AUDIO
    TITLE "3:cjc046_5555"
    INDEX 01 01:13:55
  TRACK 89 AUDIO
    TITLE "0:"
    INDEX 01 01:15:29
  TRACK 90 AUDIO
    TITLE "4:cjc046_5556"
    INDEX 01 01:15:50
  TRACK 91 AUDIO
    TITLE "0:"
    INDEX 01 01:16:63
  TRACK 92 AUDIO
    TITLE "2:cjc046_5557"
    INDEX 01 01:17:73
  TRACK 93 AUDIO
    TITLE "0:"
    INDEX 01 01:18:74
  TRACK 94 AUDIO
    TITLE "3:cjc046_5558"
    INDEX 01 01:19:21
  TRACK 95 AUDIO
    TITLE "0:"
    INDEX 01 01:20:22
  TRACK 96 AUDIO
    TITLE "4:cjc046_5559"
    INDEX 01 01:20:38
  TRACK 97 AUDIO
    TITLE "0:"
    INDEX 01 01:21:39
